<svg xmlns="http://www.w3.org/2000/svg" width="256" height="256" viewBox="0 0 100 100"><rect width="100" height="100" rx="20" fill="#d9c8b4"></rect><path fill="#353940" d="M53.76 24.78L53.76 33.08L38.52 33.08L38.52 74.54L28.26 74.54L28.26 33.08L13.22 33.08L13.22 24.78L53.76 24.78ZM71.29 67.26L71.29 67.26Q74.03 67.26 75.74 65.76Q77.45 64.25 77.51 61.76L77.51 61.76L86.78 61.76Q86.74 65.52 84.73 68.65Q82.71 71.77 79.21 73.50Q75.70 75.22 71.46 75.22L71.46 75.22Q63.54 75.22 58.96 70.18Q54.38 65.14 54.38 56.25L54.38 56.25L54.38 55.61Q54.38 47.06 58.92 41.97Q63.47 36.88 71.40 36.88L71.40 36.88Q78.33 36.88 82.52 40.82Q86.71 44.77 86.78 51.33L86.78 51.33L77.51 51.33Q77.45 48.46 75.74 46.67Q74.03 44.87 71.23 44.87L71.23 44.87Q67.77 44.87 66.01 47.39Q64.25 49.90 64.25 55.54L64.25 55.54L64.25 56.56Q64.25 62.27 66.00 64.77Q67.74 67.26 71.29 67.26Z"></path></svg>